<?xml version="1.0" encoding="utf-8"?>
<!-- Generator: Adobe Illustrator 15.0.0, SVG Export Plug-In . SVG Version: 6.00 Build 0)  -->
<!DOCTYPE svg PUBLIC "-//W3C//DTD SVG 1.1//EN" "http://www.w3.org/Graphics/SVG/1.1/DTD/svg11.dtd">
<svg version="1.1" id="Layer_1" xmlns="http://www.w3.org/2000/svg" xmlns:xlink="http://www.w3.org/1999/xlink" x="0px" y="0px"
	 width="100px" height="45.011px" viewBox="0 0 100 45.011" enable-background="new 0 0 100 45.011" xml:space="preserve">
<g>
	<path fill="#541F78" d="M5.018,31.845c1.187,0,3.328,0.486,3.328,2.069v1.079H6.331v-0.504c0-0.503-0.755-0.72-1.313-0.72
		c-1.583,0-2.716,1.206-2.716,2.86c0,1.87,1.385,2.824,2.859,2.824c1.565,0,2.716-1.242,2.716-1.242l0.954,1.583
		c0,0-1.367,1.654-3.867,1.654C1.943,41.449,0,39.309,0,36.647C0,34.057,1.871,31.845,5.018,31.845"/>
	<path fill="#541F78" d="M15.002,39.507c1.493,0,2.733-1.151,2.733-2.86c0-1.69-1.241-2.859-2.733-2.859
		c-1.475,0-2.716,1.169-2.716,2.859C12.287,38.356,13.527,39.507,15.002,39.507 M15.002,31.845c2.806,0,5.036,1.997,5.036,4.802
		c0,2.824-2.23,4.802-5.036,4.802c-2.788,0-5.018-1.978-5.018-4.802C9.984,33.842,12.214,31.845,15.002,31.845"/>
	<path fill="#541F78" d="M22.217,30.802c0-0.27-0.144-0.396-0.396-0.396h-0.72v-1.942h2.177c0.845,0,1.223,0.377,1.223,1.224v9.227
		c0,0.251,0.144,0.396,0.396,0.396h0.701v1.925H23.44c-0.863,0-1.223-0.36-1.223-1.223V30.802z"/>
	<path fill="#541F78" d="M27.937,30.802c0-0.27-0.144-0.396-0.396-0.396h-0.72v-1.942h2.177c0.845,0,1.223,0.377,1.223,1.224v9.227
		c0,0.251,0.144,0.396,0.396,0.396h0.701v1.925H29.16c-0.863,0-1.223-0.36-1.223-1.223V30.802z"/>
	<path fill="#541F78" d="M36.5,39.669c1.223,0,2.086-1.295,2.086-2.41v-0.216H38.19c-1.187,0-3.075,0.162-3.075,1.439
		C35.115,39.094,35.564,39.669,36.5,39.669 M38.262,35.479h0.288v-0.072c0-1.313-0.521-1.799-1.691-1.799
		c-0.413,0-1.223,0.108-1.223,0.612v0.485h-2.123v-0.971c0-1.708,2.411-1.889,3.364-1.889c3.058,0,3.957,1.601,3.957,3.651v3.417
		c0,0.251,0.144,0.396,0.396,0.396h0.72v1.925h-2.05c-0.846,0-1.169-0.468-1.169-1.008c0-0.234,0.018-0.395,0.018-0.395h-0.036
		c0,0-0.701,1.619-2.77,1.619c-1.637,0-3.129-1.025-3.129-2.859C32.812,35.712,36.77,35.479,38.262,35.479"/>
	<path fill="#541F78" d="M48.696,39.525c1.242,0,2.302-1.025,2.302-2.842c0-1.745-0.936-2.877-2.284-2.877
		c-1.187,0-2.302,0.863-2.302,2.896C46.412,38.122,47.167,39.525,48.696,39.525 M44.199,30.802c0-0.27-0.144-0.396-0.396-0.396
		h-0.719v-1.942h2.176c0.845,0,1.223,0.377,1.223,1.224v2.662c0,0.45-0.037,0.772-0.037,0.772h0.037c0,0,0.81-1.277,2.751-1.277
		c2.482,0,4.064,1.961,4.064,4.802c0,2.914-1.78,4.803-4.208,4.803c-1.906,0-2.733-1.295-2.733-1.295h-0.037
		c0,0,0.037,0.252,0.037,0.612v0.467h-2.159V30.802z"/>
	<path fill="#541F78" d="M55.874,33.877h-1.133v-1.816h1.133v-0.27c0-3.004,2.465-3.399,3.742-3.399
		c0.467,0,0.772,0.054,0.772,0.054v1.942c0,0-0.197-0.036-0.468-0.036c-0.647,0-1.763,0.162-1.763,1.493v0.216h1.96v1.816h-1.96
		v7.356h-2.284V33.877z"/>
	<path fill="#541F78" d="M66.092,39.507c1.493,0,2.733-1.151,2.733-2.86c0-1.69-1.24-2.859-2.733-2.859
		c-1.476,0-2.717,1.169-2.717,2.859C63.375,38.356,64.616,39.507,66.092,39.507 M66.092,31.845c2.806,0,5.036,1.997,5.036,4.802
		c0,2.824-2.23,4.802-5.036,4.802c-2.788,0-5.019-1.978-5.019-4.802C61.073,33.842,63.304,31.845,66.092,31.845"/>
	<path fill="#541F78" d="M73.504,34.399c0-0.271-0.145-0.396-0.396-0.396h-0.721v-1.942h2.087c0.81,0,1.224,0.341,1.224,1.115v0.54
		c0,0.341-0.036,0.576-0.036,0.576h0.036c0.413-1.313,1.511-2.356,2.913-2.356c0.199,0,0.414,0.036,0.414,0.036v2.248
		c0,0-0.233-0.036-0.558-0.036c-0.971,0-2.086,0.558-2.5,1.924c-0.126,0.45-0.197,0.954-0.197,1.494v3.633h-2.267V34.399z"/>
	<path fill="#541F78" d="M86.706,36.431c0-2.086-1.043-2.644-2.284-2.644c-1.385,0-2.14,1.007-2.14,2.554
		c0,1.601,0.81,2.788,2.284,2.788C85.663,39.13,86.706,38.5,86.706,36.431 M84.026,31.845c2.122,0,2.824,1.295,2.824,1.295h0.036
		v-0.234c0-0.414,0.287-0.845,1.007-0.845h2.122v1.942h-0.7c-0.234,0-0.396,0.126-0.396,0.359v6.313
		c0,3.148-2.446,4.335-4.838,4.335c-1.151,0-2.374-0.324-3.256-0.792l0.701-1.799c0,0,1.133,0.612,2.536,0.612
		c1.385,0,2.591-0.594,2.591-2.249v-0.432c0-0.215,0.017-0.485,0.017-0.485h-0.035c-0.54,0.773-1.331,1.187-2.554,1.187
		c-2.626,0-4.119-2.122-4.119-4.64C79.962,33.895,81.383,31.845,84.026,31.845"/>
	<path fill="#541F78" d="M97.661,35.461c-0.034-1.099-0.791-1.853-1.726-1.853c-1.17,0-1.996,0.701-2.248,1.853H97.661z
		 M95.936,31.845c2.625,0,4.064,1.924,4.064,4.353c0,0.271-0.054,0.846-0.054,0.846h-6.331c0.18,1.619,1.367,2.464,2.752,2.464
		c1.475,0,2.572-1.025,2.572-1.025l0.953,1.583c0,0-1.403,1.384-3.688,1.384c-3.04,0-4.928-2.193-4.928-4.802
		C91.277,33.824,93.184,31.845,95.936,31.845"/>
	<path fill="#231F20" d="M86.206,9.229c0.723,0.408,1.744,0.295,2.532,0.222c0.934-0.086,1.854-0.262,2.779-0.413
		c-0.19-0.241-0.468-0.347-0.771-0.309c0.031,0.002,0.062,0.005,0.091,0.007c-1.378-0.101-2.756,0.76-4.11,0.241
		c-0.855-0.328-1.705-0.678-2.543-1.049c-0.472-0.209-1.316-0.475-1.479-1.044c-0.255-0.895-0.604-1.849-0.672-2.781
		c-0.048-0.672-0.094-1.343-0.16-2.014C81.841,1.752,81.854,0.173,81.475,0c-0.066-0.031,0.074,1.844,0.093,2.014
		c0.089,0.809,0.076,1.657,0.2,2.457c0.135,0.873,0.432,1.731,0.729,2.562c-0.942,0.029-2.4,0.027-2.779,1.098
		c-0.115,0.327-0.053,0.667,0.077,0.978c0.077,0.185,0.269,0.437,0.25,0.646c-0.037,0.388-0.6,0.398-0.869,0.406
		c-0.475,0.013-0.863,0.108-1.24,0.414c-0.257-1.194,0.007-2.431-0.219-3.63c-0.097-0.517-0.231-0.862-0.159-1.391
		c0.036-0.261,0.206-0.877-0.074-1.065c-0.297,0.272-0.263,0.859-0.255,1.219c0.014,0.701,0.108,1.402,0.2,2.096
		c0.101,0.762,0.212,1.522,0.286,2.287c0.043,0.454,0.068,0.582-0.228,0.931c-0.301,0.355-0.549,0.752-0.791,1.148
		c-0.642-0.925-0.733-2.299-1.611-3.038c-0.962-0.808-2.224-1.382-1.842-2.869c-0.986,1.539,0.837,2.39,1.748,3.326
		c0.685,0.703,0.818,1.601,1.139,2.498c0.061,0.174,0.125,0.348,0.183,0.522c0.069,0.213-0.2,0.551-0.292,0.758
		c-0.102,0.204-0.626-0.026-0.774-0.091c-0.727-0.312-1.4-0.792-2.195-0.917c-1.059-0.168-1.581,0.588-2.054,1.409
		c-1.1,1.906-2.179,3.646-4.154,4.757c0.564,0.344,1.504-0.698,1.84-1.028c0.734-0.725,1.447-1.496,2.017-2.358
		c0.579-0.878,0.876-1.703,1.874-2.211c0.357-0.183,0.676-0.175,1.009,0.07c0.419,0.113,0.767,0.391,0.14,0.485
		c-0.375,0.141-0.708,0.369-1.029,0.601c-0.4,0.288-0.938,0.584-1.223,1c-0.59,0.856-0.739,2.166,0.236,2.815
		c0.98,0.651,2.278,0.083,2.977-0.716c0.772-0.883,1.815-1.734,2.198-2.876c0.043,1.618-0.949,3.077-1.804,4.368
		c-0.48,0.724-0.974,1.441-1.377,2.21c-0.242,0.463-0.39,0.962-0.622,1.428c-0.479,0.954-1.006,1.885-1.479,2.844
		c-0.259,0.525-0.512,1.058-0.714,1.608c-0.101,0.276-0.298,0.714-0.188,1.014c1.273-2.676,2.41-5.43,3.98-7.952
		c0.691-1.112,1.772-2.149,2.142-3.428c0.201-0.697,0.194-1.776,0.813-2.263c0.461-0.362,1.415,0.875,1.767,1.121
		c0.506,0.354,1.259,0.721,1.412,1.378c0.293,1.25,1.166,4.25,2.996,3.741c-0.261-0.595-0.977-0.614-1.479-0.888
		c-0.933-0.511-0.671-1.623-0.793-2.499c-0.144-1.024-0.87-1.517-1.739-1.94c-0.396-0.193-1.058-0.413-1.194-0.896
		c-0.06-0.217-0.017-0.332,0.175-0.418c0.338-0.153,0.623-0.424,0.829-0.729c0.114,1.003,3.464-0.227,3.894-0.643
		c0.302-0.293,0.77-0.244,1.171-0.248c0.667-0.008,1.34,0.021,2.004-0.06c0.318-0.038,0.987-0.119,0.993-0.559
		c0.002-0.197-2.47,0.328-2.763,0.357c-0.94,0.091-1.878,0.177-2.751,0.569c-0.51,0.229-1.563,0.937-2.135,0.619
		c0.361,0.202,0.706-1.882,0.756-2.109c0.101-0.451,0.279-0.425,0.744-0.377c0.816,0.086,1.47-0.167,1.884-0.904
		c0.187-0.33,0.43-0.877,0.354-1.272C83.695,7.986,84.035,8.005,84.31,8.1C85.023,8.347,85.562,8.866,86.206,9.229
		C87.319,9.857,86.189,9.22,86.206,9.229"/>
</g>
</svg>
